<?xml version="1.0" encoding="UTF-8"?>
<svg version="1.1" viewBox="0 0 1600 1600" width="1280" height="1280" xmlns="http://www.w3.org/2000/svg">
<path transform="translate(796 880)" d="m0 0h2.8c37.4 0.06 37.4 0.06 41.6 2.12 1.42 0.2 2.85 0.35 4.28 0.47 0.86 0.08 1.72 0.16 2.61 0.24 1.8 0.15 3.59 0.31 5.39 0.46 5.44 0.49 10.4 1.43 15.7 2.83 1.37 0.21 2.74 0.39 4.12 0.5 3.88 0.5 3.88 0.5 6.81 1.5 3.35 1.1 6.42 1.42 9.92 1.66 2.37 0.38 4.01 1.26 6.15 2.34 1.99 0.38 1.99 0.38 4 0.5 2.34 0.19 3.85 0.43 5.96 1.5 2.92 1.44 5.71 1.44 8.91 1.66 2.12 0.34 2.12 0.34 5.13 2.34 1.17 0.17 2.35 0.34 3.56 0.5 3.44 0.5 3.44 0.5 5.44 2.5 2.36 0.39 2.36 0.39 5 0.5 4.77 0.28 4.77 0.28 7 2.5 2.25 0.54 2.25 0.54 4.87 0.88 6.3 1.04 12.1 2.99 18.1 5.12 2.38 0.8 4.55 1.34 7 1.82 3.62 0.78 6.97 1.86 10.4 3.18 4.34 1.64 8.52 2.69 13.1 3.51 11.2 2.23 11.2 2.23 14.5 5.49 0.96-0.02 1.93-0.04 2.93-0.06 1.01 0.02 2.02 0.04 3.07 0.06 0.46 0.5 0.92 0.99 1.39 1.5 1.52 1.72 1.52 1.72 3.87 1.8 1.2-0.05 1.2-0.05 2.42-0.11 0.81-0.02 1.62-0.05 2.45-0.08 0.92-0.05 0.92-0.05 1.87-0.11v2c0.68 0.09 1.36 0.18 2.06 0.27 10.7 1.55 20.7 4.88 30.9 8.49 3.69 1.26 7.23 1.71 11.1 1.94 1.95 0.3 1.95 0.3 4.95 2.3 1.73 0.25 1.73 0.25 3.5 0.5 3.5 0.5 3.5 0.5 6.5 2.5 2.17 0.39 2.17 0.39 4.5 0.5 3.47 0.24 4.45 0.48 7.5 2.5 2.32 0.69 4.66 1.36 7 2 0.32 0.34 0.65 0.66 1 1 2.48 0.25 4.96 0.39 7.45 0.53 2.55 0.47 2.55 0.47 4.49 1.95 2.7 2 4.71 2.05 8.06 2.52 3.87 0.92 7.71 1.93 11.6 2.94 1.03 0.27 2.05 0.53 3.11 0.81 1 0.25 1.99 0.51 3.02 0.78 1.35 0.35 1.35 0.35 2.72 0.71 2.61 0.77 5.06 1.75 7.59 2.76 1.91 0.49 3.82 0.97 5.73 1.43 10.3 2.61 10.3 2.61 14.3 4.57 1.53 0.23 3.07 0.41 4.62 0.57 1.23 0.12 1.23 0.12 2.48 0.25 0.62 0.06 1.25 0.12 1.9 0.18v2c0.62 0.07 1.25 0.13 1.89 0.19 1.23 0.12 1.23 0.12 2.48 0.25 1.22 0.12 1.22 0.12 2.46 0.25 2.17 0.31 2.17 0.31 4.17 1.31v2c1.19-0.06 2.39-0.12 3.62-0.18 4.19-0.01 6.66 1.21 10.4 3.18 2.37 0.62 4.73 1.12 7.14 1.58 1.86 0.42 1.86 0.42 2.86 1.42 2.25 0.29 4.5 0.45 6.77 0.63 2.23 0.37 2.23 0.37 5.23 2.37 2.66 0.73 5.31 1.39 8 2 7.5 1.88 7.5 1.88 9.56 2.4 3.56 0.9 7.13 1.77 10.7 2.58 6.75 1.54 12.9 3.15 18.8 6.85 2.84 1.75 5.82 2.93 8.91 4.17v2c1.48-0.49 1.48-0.49 3-1l3 2v2c0.99-0.33 1.98-0.65 3-1 2.3 1.08 2.3 1.08 4.87 2.69 0.89 0.56 1.78 1.12 2.7 1.69 2.6 1.74 5.02 3.62 7.43 5.62 1.07 0.69 2.14 1.37 3.24 2.07 2.76 1.93 2.76 1.93 3.76 4.93 0.99-0.32 1.98-0.66 3-1 0.66 1.32 1.31 2.64 2 4h3v2c1.31 0.67 2.64 1.32 4 2v2c0.53 0.21 1.07 0.42 1.62 0.63 3.29 1.91 5.97 4.42 8.38 7.37v2c0.61 0.25 1.23 0.5 1.87 0.76 2.48 1.45 3.08 2.62 4.13 5.24h2v2c0.59 0.25 1.19 0.5 1.8 0.75 2.55 1.46 3.66 2.92 5.32 5.32 1.99 2.98 1.99 2.98 4.88 4.93 0.71 1.65 1.37 3.32 2 5 0.65 1.35 1.31 2.68 2 4h2c0.26 0.79 0.53 1.57 0.81 2.38 1.03 2.91 1.03 2.91 4.19 4.62 0.94 2.17 0.94 2.17 1.68 4.63 0.25 0.82 0.51 1.63 0.76 2.48 0.19 0.62 0.37 1.25 0.56 1.89h2c0.32 1.99 0.66 3.97 1 6h2c0.32 1.99 0.66 3.97 1 6h2c1.76 3.77 3.13 7.23 3.93 11.3 0.67 3.3 1.62 6.21 2.94 9.31 3.73 8.98 6.41 18.6 6.85 28.3 0.16 2.1 0.16 2.1 1.27 3.93 1.08 2.28 1.27 3.72 1.29 6.22 0.02 0.79 0.03 1.59 0.04 2.41 0.01 1.27 0.01 1.27 0.02 2.57 0.01 0.87 0.03 1.75 0.04 2.65 0.07 3.75 0.11 7.5 0.15 11.2 0.03 2.74 0.08 5.48 0.12 8.22 0.01 1.28 0.01 1.28 0.02 2.58-0.13 4.59-0.13 4.59 2.33 8.22 0.25 2.21 0.25 2.21 0.25 4.97 0.01 1.56 0.01 1.56 0.02 3.14 0 1.12-0.01 2.24-0.01 3.39s0 2.3 0.01 3.48c0 2.43-0.01 4.86-0.01 7.28-0.01 3.73 0 7.46 0.01 11.2 0 2.36-0.01 4.71-0.01 7.06 0 1.13 0.01 2.25 0.01 3.4 0 1.04-0.01 2.07-0.02 3.14v2.76c-0.25 2.21-0.25 2.21-2.25 4.2-0.34 2.15-0.34 2.15-0.32 4.64-0.02 0.96-0.04 1.92-0.06 2.91-0.02 1.04-0.03 2.08-0.04 3.15-0.02 1.06-0.04 2.13-0.06 3.22-0.06 3.4-0.1 6.81-0.15 10.2-0.04 2.3-0.08 4.61-0.12 6.91-0.09 5.65-0.18 11.3-0.25 17h-2c-0.1 1.03-0.2 2.06-0.3 3.12-0.77 7.35-1.75 14-4.56 20.9-1.78 4.68-3.07 9.51-4.39 14.3-1.54 5.45-1.54 5.45-3.75 7.66-0.65 2.58-0.65 2.58-1 5h-3v6h-2c-0.25 0.81-0.5 1.61-0.76 2.44-1.51 4.31-3.35 8.42-5.24 12.6h-3c-0.67 2.31-1.32 4.62-2 7h-3v3h-2v2h-3c-0.09 0.54-0.17 1.08-0.26 1.63-1.01 3.21-2.84 5.61-4.74 8.37-0.7 1.32-1.38 2.65-2 4h-2c-0.33 1-0.67 1.99-1 3h-2v2c-5.48 5-5.48 5-8 5-0.41 0.96-0.41 0.96-0.82 1.94-1.18 2.06-1.18 2.06-4.18 3.06-0.33 0.66-0.67 1.33-1 2-0.33 0.66-0.67 1.33-1 2-1 0.33-1.99 0.66-3 1-0.09 0.62-0.17 1.24-0.26 1.88-0.37 1.05-0.37 1.05-0.74 2.12-2.32 1.05-4.65 2.05-7 3-1.37 1.3-2.72 2.62-4 4h-2v2c-0.57 0.27-1.14 0.54-1.72 0.81-0.73 0.35-1.47 0.71-2.22 1.07-0.73 0.35-1.46 0.7-2.22 1.05-2.01 0.94-2.01 0.94-2.84 3.07-0.95 0.31-1.9 0.62-2.88 0.94-3.06 0.78-3.06 0.78-4.55 2.51-1.83 1.81-3.46 2.56-5.83 3.55-0.79 0.34-1.59 0.68-2.41 1.03-0.77 0.32-1.54 0.64-2.33 0.97-1.2 0.54-2.4 1.08-3.63 1.63-8.28 3.37-8.28 3.37-12.4 3.37v2c-0.72 0.14-1.43 0.27-2.16 0.41-0.92 0.17-1.84 0.35-2.78 0.53-0.92 0.18-1.84 0.35-2.78 0.53-2.24 0.31-2.24 0.31-3.28 1.53-1.14 0.15-2.27 0.29-3.44 0.44-3.61 0.21-3.61 0.21-5.56 2.56-2.6 0.42-5.14 0.75-7.76 1-5.64 0.55-5.64 0.55-11.1 2.03-4.6 1.42-9.12 1.4-13.9 1.54-1.89 0.06-3.78 0.12-5.67 0.19-0.83 0.02-1.66 0.05-2.52 0.07-2.49 0.14-4.93 0.39-7.41 0.68-6.34 0.63-12.6 0.64-19 0.64-1.34 0-2.67 0-4.01 0.01-3.66 0-7.32 0.01-11 0.01-3.99 0-7.98 0.01-12 0.02-6.98 0.01-14 0.02-21 0.03-10.4 0-20.8 0.02-31.2 0.04-18.6 0.03-37.1 0.05-55.7 0.07-16.3 0.02-32.5 0.04-48.8 0.06-1.07 0-2.15 0-3.26 0.01-4.38 0-8.76 0.01-13.1 0.01-41.1 0.06-82.2 0.11-123 0.16-36.5 0.04-72.9 0.09-109 0.14-41 0.06-82 0.11-123 0.16-4.37 0.01-8.75 0.01-13.1 0.02h-3.27c-16.2 0.02-32.4 0.04-48.7 0.07-18.5 0.02-37 0.05-55.4 0.06-10.3 0.01-20.6 0.03-31 0.04-6.91 0.02-13.8 0.02-20.7 0.03-3.93 0-7.86 0-11.8 0.01-14.4 0.03-28.8-0.02-43.1-0.54-1.1-0.04-2.21-0.08-3.35-0.12-1.5-0.06-1.5-0.06-3.03-0.12-0.88-0.04-1.75-0.07-2.65-0.11-1.98-0.21-1.98-0.21-2.98-1.21-1.99-0.2-3.98-0.34-5.97-0.46-1.21-0.08-2.42-0.16-3.67-0.24-2.58-0.15-5.15-0.31-7.73-0.46-1.21-0.08-2.42-0.16-3.67-0.24-1.12-0.06-2.24-0.13-3.39-0.2-0.85-0.13-1.7-0.26-2.57-0.4-0.34-0.65-0.66-1.32-1-2-2.52-0.43-2.52-0.43-5.44-0.56-5.38-0.34-5.38-0.34-7.56-1.44-1.5-0.2-3-0.36-4.5-0.5-4.28-0.38-4.28-0.38-6.5-1.5v-2c-2.32-0.32-4.63-0.65-7-1-0.34-0.99-0.66-1.98-1-3-1.27 0.1-1.27 0.1-2.57 0.19-4.17-0.23-6.69-1.39-10.4-3.19v-2c-1.06-0.24-2.11-0.49-3.19-0.74-3.66-1.04-5.9-2.8-8.81-5.26-0.74-0.27-1.47-0.55-2.23-0.84-3.48-1.45-6.45-3.45-9.53-5.59-0.58-0.4-1.17-0.79-1.78-1.2-4.34-3-4.34-3-5.46-6.37-1.15 0.1-1.15 0.1-2.32 0.19-2.68-0.19-2.68-0.19-4.5-1.56-1.18-1.63-1.18-1.63-1.18-3.63-1-0.32-1.99-0.65-3-1v-2c-0.6-0.25-1.2-0.51-1.82-0.78-2.35-1.31-3.53-2.56-5.18-4.65-2.15-2.63-4.26-4.56-7-6.57v-2h-2v-2c-1-0.32-1.99-0.65-3-1-1.38-1.29-2.71-2.62-4-4-0.66-0.65-1.32-1.32-2-2-0.46-0.78-0.91-1.56-1.38-2.37-1.49-2.64-1.49-2.64-3.5-4.5-2.76-2.76-5.11-5.78-7.12-9.13v-2h-2c-1.98-3.4-3.89-6.77-5.63-10.3-1.23-2.75-1.23-2.75-3.37-4.69v-3h-2c-1.18-2.6-2.34-5.2-3.5-7.81-0.51-1.1-0.51-1.1-1.02-2.23-0.31-0.72-0.63-1.43-0.95-2.16-0.44-0.98-0.44-0.98-0.89-1.99-0.64-1.81-0.64-1.81-0.64-4.81-0.66-0.32-1.32-0.66-2-1-0.78-1.81-0.78-1.81-1.51-4.14-0.4-1.26-0.4-1.26-0.8-2.55-0.27-0.88-0.54-1.77-0.82-2.68-0.28-0.88-0.55-1.75-0.84-2.66-2.03-6.55-2.03-6.55-2.03-9.97h-2c-0.14-0.85-0.27-1.7-0.41-2.58-0.17-1.11-0.35-2.21-0.53-3.35-0.18-1.1-0.35-2.21-0.53-3.34-0.25-2.63-0.25-2.63-1.53-3.73-0.09-1.41-0.11-2.83-0.1-4.25 0-0.85 0-1.71 0.01-2.59 0.01-0.89 0.01-1.79 0.02-2.72 0.01-0.9 0.01-1.8 0.02-2.73 0.01-2.24 0.02-4.47 0.05-6.71-1-0.32-1.99-0.66-3-1-0.05-14.2-0.09-28.4-0.11-42.5-0.01-6.58-0.02-13.2-0.05-19.7-0.02-6.35-0.03-12.7-0.03-19-0.01-2.42-0.02-4.85-0.03-7.28-0.01-3.39-0.01-6.77-0.01-10.2-0.01-1.01-0.02-2.03-0.02-3.07v-2.79-2.43c0.25-1.95 0.25-1.95 2.25-3.95 0.33-2.27 0.33-2.27 0.34-4.9 0.03-0.97 0.06-1.94 0.09-2.94 0.02-1.02 0.04-2.04 0.07-3.09 0.04-2.01 0.09-4.02 0.15-6.03 0.02-0.89 0.04-1.79 0.06-2.71 0.29-2.33 0.29-2.33 2.29-5.33 0.45-2.74 0.83-5.42 1.12-8.18 0.09-0.75 0.17-1.5 0.26-2.27 0.21-1.85 0.42-3.7 0.62-5.55h2c0.12-1.11 0.24-2.22 0.37-3.37 0.63-3.63 0.63-3.63 2.63-5.63 0.14-1.07 0.28-2.14 0.43-3.24 0.58-3.83 1.82-6.35 3.57-9.76-0.34-0.66-0.66-1.31-1-2h3c0.09-1.73 0.09-1.73 0.18-3.5 0.52-4.32 2.16-7.13 4.66-10.6 1.21-1.95 1.72-3.61 2.16-5.86h3c0.12-0.76 0.24-1.52 0.37-2.31 1.1-4.71 4.55-8.96 7.63-12.7h2c0.34-0.99 0.34-0.99 0.68-2 2.83-6.47 6.13-11.2 11.7-15.5 1.69-1.49 2.77-2.93 3.96-4.83 0.55-0.87 1.11-1.73 1.69-2.63h2c0.12-0.59 0.24-1.19 0.37-1.81 0.63-2.19 0.63-2.19 2.63-5.19 0.99-0.32 1.98-0.66 3-1 0.46-0.99 0.46-0.99 0.93-2 0.35-0.66 0.7-1.31 1.07-2 0.89-0.21 0.89-0.21 1.81-0.43 2.5-0.45 2.5-0.45 4.75-3.13l2.44-2.44h3c0.26-0.61 0.53-1.23 0.81-1.87 1.19-2.13 1.19-2.13 4.19-4.13h4c0.07-0.89 0.07-0.89 0.15-1.8 1.25-3.24 3.29-3.81 6.35-5.32 3.96-1.7 3.96-1.7 6.5-4.88 1.75-0.92 1.75-0.92 4-1.87 0.8-0.35 1.6-0.69 2.43-1.05 1.71-0.72 3.42-1.43 5.13-2.15 0.8-0.35 1.61-0.69 2.44-1.05 1.11-0.47 1.11-0.47 2.24-0.95 1.94-0.8 1.94-0.8 2.76-2.93 1.96-0.56 1.96-0.56 4.37-1 3.3-0.6 4.74-1.07 7.63-3 1.01-0.16 2.02-0.33 3.06-0.5 3.05-0.22 3.05-0.22 4.94-2.5 2.04-0.37 4.05-0.5 6.12-0.65 2.11-0.21 2.11-0.21 3.88-2.35 2.05-0.34 2.05-0.34 4.43-0.5 3.5-0.23 4.51-0.46 7.57-2.5 1.94-0.3 1.94-0.3 4.12-0.43 5.69-0.53 10.7-2.31 16-4.39 4.33-1.71 8.26-2.56 12.9-3.18 0.82-0.33 1.64-0.65 2.5-1 2.5-1 2.5-1 6.18-1.5 3.39-0.17 3.39-0.17 5.32-2.5 2.16-0.19 2.16-0.19 4.62-0.12 0.82 0.02 1.63 0.04 2.48 0.05 0.62 0.03 1.25 0.05 1.9 0.07v-2c2.4-1.2 3.94-1.1 6.62-1.06 0.82 0.01 1.63 0.02 2.48 0.03 0.62 0.01 1.25 0.02 1.9 0.03v-2c0.69-0.12 1.39-0.24 2.11-0.36 0.91-0.17 1.82-0.34 2.76-0.51 0.9-0.16 1.81-0.32 2.74-0.49 2.55-0.47 2.55-0.47 4.39-2.64 2.03-0.56 2.03-0.56 4.5-1 0.88-0.16 1.77-0.33 2.68-0.5 1.88-0.33 3.75-0.66 5.63-1 0.88-0.16 1.77-0.33 2.69-0.5 1.22-0.21 1.22-0.21 2.46-0.43 2.24-0.44 2.24-0.44 4.04-2.57 2.46-0.56 2.46-0.56 5.37-1 3.63-0.54 6.4-1.25 9.63-3 4.9-1.56 9.79-2.56 14.9-3.43 2.33-0.42 2.33-0.42 4.14-2.57 2.27-0.34 2.27-0.34 4.93-0.5 3.69-0.21 4.89-0.38 8.07-2.5 1.17-0.16 2.35-0.33 3.56-0.5 3.49-0.15 3.49-0.15 5.44-2.5 2.02-0.34 2.02-0.34 4.37-0.5 3.42-0.22 5.58-0.97 8.63-2.5 2.33-0.07 4.66-0.08 7 0v-2c0.85-0.19 1.71-0.38 2.59-0.58 9.93-2.23 9.93-2.23 19.6-5.2 7.48-2.63 7.48-2.63 11.8-2.22v-2c4.95-0.49 4.95-0.49 10-1v-2c3.06-1.53 6.29-1.38 9.68-1.62 2.5-0.18 2.5-0.18 4.32-2.38 3.12-0.12 3.12-0.12 6 0 0.32-0.99 0.66-1.98 1-3h13v-2c0.92-0.18 0.92-0.18 1.86-0.36 1.21-0.25 1.21-0.25 2.45-0.51 0.8-0.16 1.6-0.32 2.42-0.49 2.52-0.58 2.52-0.58 5.27-2.64 2.02-0.35 4.01-0.5 6.06-0.65 2.25-0.27 2.25-0.27 4.94-2.35 3.08-0.6 6.17-1.01 9.28-1.43 2.85-0.33 2.85-0.33 4.72-2.57 1.45 0.04 1.45 0.04 2.93 0.07 3.06 0.29 3.06 0.29 4.57-1.57 1.5-1.5 1.5-1.5 4.56-1.74 2.94 0.24 2.94 0.24 4.94 1.24-0.33-0.99-0.67-1.98-1-3 0.84-0.12 1.68-0.24 2.55-0.36 1.1-0.17 2.19-0.34 3.32-0.51 1.09-0.16 2.18-0.32 3.3-0.49 2.94-0.4 2.94-0.4 4.83-2.64 2.04-0.37 4.05-0.5 6.12-0.65 2.11-0.21 2.11-0.21 3.88-2.35 2.82-0.38 5.62-0.5 8.46-0.65 2.7-0.11 2.7-0.11 4.54-2.35 2.64-0.34 2.64-0.34 5.81-0.5 4.23-0.21 7.29-0.89 11.2-2.5 2.53-0.34 5.04-0.49 7.59-0.65 2.39-0.2 2.39-0.2 4.23-1.33 2.53-1.18 4.53-1.4 7.31-1.61 0.97-0.08 1.94-0.16 2.94-0.24 1.01-0.08 2.01-0.15 3.05-0.23 2-0.15 4.01-0.31 6.01-0.47 1.33-0.1 1.33-0.1 2.68-0.2 2.23-0.15 2.23-0.15 4.19-1.27 11.8-1.33 23.8-1.15 35.6-1.12zm-194 39.1 1 3zm660 77 4 1zm-997 39 1 3zm-31 38 1 2zm-28 61 1 3zm15 216 1 3z" fill="#FAFCFC"/>
<path transform="translate(771 134)" d="m0 0c0.69-0 1.37-0.01 2.08-0.01 2.26-0.01 4.51 0 6.77 0h4.73c3.29-0.01 6.59 0 9.89 0.01 4.22 0.01 8.44 0 12.7-0.01 3.25-0.01 6.5 0 9.75 0h4.67c2.18-0.01 4.36 0 6.54 0.01h3.75c3.21 0.25 5.35 0.97 8.27 2.26 2.3 0.24 4.62 0.4 6.94 0.5 4.78 0.21 8.54 0.97 13.1 2.5 3.1 0.34 6.18 0.5 9.29 0.66 2.71 0.34 2.71 0.34 5.71 2.34 2.14 0.38 2.14 0.38 4.44 0.5 3.38 0.23 5.57 0.92 8.56 2.5 1.92 0.49 3.84 0.97 5.76 1.43 10.3 2.63 10.3 2.63 12.2 4.57 2.33 0.37 4.66 0.7 7 1v2c0.63 0.1 1.26 0.19 1.9 0.3 6.02 1.05 10.8 2.74 16.1 5.7 3.68 1.92 7.24 3.75 11.2 5.06 2.93 0.98 5.28 2.15 7.81 3.94v2c1.05-0.08 2.1-0.17 3.19-0.25 4.36 0.28 5.81 1.16 8.81 4.25v2c0.72 0.1 1.44 0.19 2.19 0.29 3.21 0.81 5.13 2.07 7.81 4.02 1.31 0.95 1.31 0.95 2.64 1.92 1.71 1.28 3.39 2.61 5.05 3.96 2.34 1.84 4.79 3.28 7.39 4.73 2.14 1.2 4.25 2.44 6.36 3.7 1.01 0.61 1.01 0.61 2.05 1.23 0.5 0.38 1 0.76 1.51 1.15v2h3v3c0.53 0.27 1.07 0.54 1.62 0.81 0.79 0.39 1.57 0.79 2.38 1.19 1.45 0.65 1.45 0.65 2.94 1.31 3.35 1.85 5.46 3.89 8.06 6.69 3.17 3.41 5.52 5.59 10 7v2h2v2c0.96 0.37 0.96 0.37 1.94 0.75 2.6 1.58 2.35 2.42 3.06 5.25 0.58 0.29 1.15 0.58 1.75 0.87 3.28 1.65 4.98 4.28 7.25 7.13 0.58 0.56 1.15 1.11 1.75 1.69 1.25 1.31 1.25 1.31 2.25 4.31 0.78 0.45 1.57 0.91 2.37 1.37 3.09 1.91 3.85 3.5 5.63 6.63 0.89 1.1 1.81 2.18 2.75 3.25 5.77 6.6 10.9 13.6 15.8 20.9 0.49 0.62 0.97 1.23 1.48 1.87h2c0.59 1.48 0.59 1.48 1.19 3 1.51 3.56 3.45 6.69 5.53 9.94 5.28 8.53 5.28 8.53 5.28 12.1h2l6 12c0.39 0.73 0.79 1.45 1.19 2.2 0.81 1.8 0.81 1.8 0.81 4.8h2c0.26 0.69 0.53 1.37 0.8 2.08 0.36 0.9 0.71 1.8 1.07 2.73 0.52 1.34 0.52 1.34 1.06 2.71 1.06 2.66 1.06 2.66 3.07 5.48 0.46 1.65 0.92 3.31 1.36 4.97 0.97 3.09 2.36 5.97 3.7 8.92 2.38 5.34 3.72 11 5.16 16.6 0.72 2.7 0.72 2.7 2.78 5.49 0.41 2.48 0.41 2.48 0.62 5.19 0.08 0.9 0.15 1.8 0.23 2.73 0.05 0.68 0.1 1.37 0.15 2.08h2l2 13h1c0.05 1 0.1 2 0.15 3.03 0.07 1.29 0.15 2.58 0.22 3.91 0.07 1.28 0.14 2.57 0.21 3.9 0.14 1.04 0.28 2.08 0.42 3.16l2 1c0.26 2.46 0.42 4.84 0.5 7.31-0.02 4.91-0.02 4.91 1.5 9.46 1.44 3.21 1.25 6.03 1.26 9.54 0 1.09 0 1.09 0.01 2.2 0.01 2.41 0 4.81-0.01 7.22 0 1.67 0.01 3.34 0.01 5.01 0 3.5 0 7-0.01 10.5-0.01 4.49-0.01 8.98 0.01 13.5v10.3c-0.01 1.66 0 3.31 0 4.97 0.01 2.31 0 4.62-0.01 6.93-0.01 1.97-0.01 1.97-0.01 3.99-0.25 3.06-0.25 3.06-2.25 5.06-0.37 2.13-0.37 2.13-0.42 4.57-0.04 0.9-0.07 1.79-0.11 2.71-0.03 0.94-0.07 1.88-0.1 2.84-0.04 0.95-0.07 1.89-0.11 2.87-0.1 2.33-0.18 4.67-0.26 7.01-0.99 0.49-0.99 0.49-2 1-0.39 2.52-0.39 2.52-0.5 5.44-0.28 5.34-0.28 5.34-2.5 7.56-0.25 2.16-0.41 4.33-0.5 6.5-0.28 6.28-0.28 6.28-2.5 8.5-0.54 1.86-0.54 1.86-0.88 4-0.9 4.41-2.37 8.34-4.1 12.5-1.54 3.77-2.79 7.63-4.02 11.5h-2v8c-0.99 0.33-1.98 0.66-3 1v6h-3c0.05 0.72 0.1 1.45 0.15 2.19-0.17 3.2-1 4.95-2.53 7.75-1.92 3.63-3.4 7.12-4.62 11.1-0.64 1.35-1.3 2.69-2 4h-3c-0.11 0.68-0.21 1.36-0.31 2.06-0.84 3.57-2.19 6.6-3.69 9.94h-3v6h-2v3h-3c-0.25 1.07-0.5 2.14-0.75 3.25-1.28 3.84-2.39 5.07-5.25 7.75-0.79 2.14-0.79 2.14-1 4h-2c-0.08 0.58-0.17 1.15-0.25 1.75-0.96 2.87-2.63 4.12-4.75 6.25-0.33 0.89-0.66 1.77-1 2.69-0.33 0.76-0.66 1.52-1 2.31-1.33 0.37-2.66 0.71-4 1-1.14 1.78-1.14 1.78-2 4-2.46 4.8-2.46 4.8-5.19 5.81-0.9 0.09-0.9 0.09-1.81 0.19-0.13 1.11-0.13 1.11-0.25 2.25-0.9 3.29-2.14 4.61-4.75 6.75h-2c-0.25 0.56-0.5 1.11-0.75 1.69-2.82 5.21-6.78 8.69-11.2 12.5-1.91 1.73-3.51 3.52-5.14 5.52-3.3 4-6.91 6.66-11.9 8.31v2c-0.96 0.15-0.96 0.15-1.94 0.31-0.68 0.23-1.36 0.46-2.06 0.69l-1 3c-2.06 0.69-2.06 0.69-4 1-0.02 0.6-0.04 1.2-0.06 1.81-1.5 3.48-4.56 3.83-7.94 5.19l-2 3c-1.66 0.69-3.33 1.35-5 2l-1 2c-2.56 0.62-2.56 0.62-5 1l-1 3c-2.34 0.67-4.67 1.33-7 2l-1 3c-1.65 0.72-3.32 1.38-5 2l-2 2h-3c-1.02 0.98-2.02 1.98-3 3h-2v2c-1.63 0.67-3.25 1.34-4.88 2-0.9 0.37-1.81 0.74-2.74 1.12-2.38 0.88-2.38 0.88-4.38 0.88v2c-0.64 0.11-1.28 0.22-1.94 0.33-1.24 0.24-1.24 0.24-2.5 0.48-0.82 0.15-1.65 0.3-2.5 0.46-0.68 0.24-1.36 0.48-2.06 0.73l-1 3c-2.4 0.84-2.4 0.84-5.38 1.5-3.95 0.88-5.86 1.58-8.62 4.5-2.33 0.38-4.66 0.71-7 1-0.7 0.35-1.4 0.7-2.13 1.06-2.38 1.19-4.24 1.08-6.87 0.94v2c-0.61 0.12-1.21 0.24-1.83 0.37-0.8 0.16-1.6 0.33-2.42 0.5-0.79 0.17-1.58 0.33-2.39 0.5-2.33 0.52-2.33 0.52-4.13 1.57-3.41 1.61-7 2.26-10.7 3.06-4.72 1.04-9.07 2.19-13.6 4-9.55 2.27-18.9 3.37-28.7 3.69-3.18 0.06-3.18 0.06-5.08 1.31-3.18 1.41-6.24 1.28-9.65 1.26-0.74 0-1.48 0-2.24 0.01-2.44 0.01-4.87 0-7.31-0.01-1.69 0.01-3.38 0.01-5.08 0.01-3.54 0-7.09 0-10.6-0.01-4.56-0.01-9.11-0.01-13.7 0.01h-10.5-5.04c-2.34 0.01-4.68 0-7.02-0.01-0.7 0-1.4 0.01-2.11 0.01-4.8-0.04-4.8-0.04-7.03-2.27-2.29-0.21-4.58-0.32-6.88-0.38-6.72-0.28-13.2-1.22-19.8-2.56-0.84-0.17-1.68-0.34-2.54-0.51-4.4-0.93-8.57-2.11-12.8-3.55-1.35-0.34-2.7-0.66-4.05-0.97-0.7-0.16-1.4-0.32-2.12-0.48-1.45-0.33-2.9-0.65-4.35-0.96-1.85-0.44-3.67-1-5.48-1.59l-1-3c-1.7 0.03-1.7 0.03-3.44 0.06-3.56-0.06-3.56-0.06-4.56-1.06-1.16-0.06-2.31-0.12-3.5-0.19-3.7-0.4-5.78-1.49-8.75-3.69-4.43-3.21-8.51-4.21-13.8-5.33-4.42-1.18-8.12-3.34-12-5.79v-2c-1.05-0.29-2.11-0.58-3.19-0.88-3.05-0.9-5.94-1.77-8.81-3.12l-1-2c-1.88-0.9-1.88-0.9-4.06-1.63-0.74-0.26-1.47-0.52-2.23-0.79-0.56-0.19-1.13-0.38-1.71-0.58v-2h-2v-2c-1.24-0.09-1.24-0.09-2.5-0.19-4.41-1.02-7.99-2.95-11.5-5.81v-2c-0.79-0.31-1.57-0.62-2.38-0.94-2.62-1.06-2.62-1.06-4.62-2.06v-2c-0.74-0.27-1.47-0.53-2.23-0.8-2.77-1.2-4.74-2.52-7.08-4.39-0.78-0.61-1.55-1.23-2.35-1.87-2.91-2.41-5.73-4.91-8.52-7.46-1.78-1.56-1.78-1.56-3.99-2.56-1.83-0.92-1.83-0.92-2.83-2.92l-1.88-0.94c-2.21-1.1-3.55-2.17-5.12-4.06v-2h-2v-2h-2v-2h-2v-2h-2v-2l-4-2v-2c-0.99-0.33-1.98-0.66-3-1-1.54-1.49-1.54-1.49-3.06-3.31-0.51-0.6-1.02-1.19-1.54-1.8-1.4-1.89-1.4-1.89-2.43-4.06-0.85-2.09-0.85-2.09-3.41-2.77-3.3-1.37-4.08-2.87-5.56-6.06v-3l-1.88-0.94c-1.37-0.69-2.75-1.37-4.12-2.06v-3h-2l-2-6h-2c-5-5.48-5-5.48-5-8-0.99-0.33-1.98-0.66-3-1-1.19-3.56-1.19-3.56-2-7h-2c-0.08-0.95-0.17-1.9-0.25-2.88-0.4-3.23-0.4-3.23-2.81-4.5-0.96-0.31-0.96-0.31-1.94-0.62v-2h-2c-0.13-0.81-0.25-1.61-0.38-2.44-0.2-0.84-0.41-1.69-0.62-2.56l-2-1c-1.29-1.93-1.29-1.93-2.63-4.31-0.44-0.78-0.89-1.56-1.35-2.37-1.02-2.32-1.02-2.32-1.02-6.32h-2c-0.5-1.49-0.5-1.49-1-3l1-2h-2v-3h-2c-1.12-2.6-1.99-4.96-2.5-7.75-0.25-1.11-0.25-1.11-0.5-2.25l-2-1c-0.34-2.33-0.67-4.67-1-7l-2-2c-3.68-6.88-6.67-14.3-8-22l1-2h-2c-2.1-3.7-2.38-6.8-2.66-11-0.18-2.24-0.18-2.24-2.34-4.02 0.03-1.46 0.03-1.46 0.06-2.94-0.02-1.01-0.04-2.02-0.06-3.06-0.49-0.44-0.97-0.89-1.47-1.34-2.15-2.33-1.97-4.11-2.09-7.22-0.01-4.22-0.01-4.22-2.44-7.44-0.26-2.61-0.42-5.14-0.5-7.75-0.05-1.41-0.1-2.82-0.16-4.24-0.02-0.62-0.04-1.25-0.06-1.89-0.23-2.28-0.23-2.28-1.28-4.96-1.08-3.4-1.29-6.2-1.35-9.77-0.03-1.23-0.06-2.46-0.09-3.73-0.04-2.58-0.08-5.16-0.13-7.74-0.03-1.22-0.06-2.45-0.09-3.71-0.03-1.68-0.03-1.68-0.06-3.4-0.08-3.02-0.08-3.02-2.28-5.81-0.26-2.27-0.26-2.27-0.27-4.9 0-0.95 0-1.91-0.01-2.89 0.01-1 0.02-2 0.03-3.02-0.01-0.99-0.02-1.97-0.03-2.99 0.02-7.45 0.02-7.45 1.26-11.1 2-6.09 1.46-12.8 1.58-19.2 0.03-1.08 0.06-2.17 0.09-3.29 0.02-0.99 0.04-1.98 0.06-3 0.29-2.72 1.02-4.27 2.29-6.65 0.31-3.24 0.46-6.44 0.56-9.69 0.24-5.11 0.24-5.11 2.44-7.31 0.25-2.16 0.4-4.33 0.5-6.5 0.28-6.28 0.28-6.28 2.5-8.5 0.46-2.43 0.46-2.43 0.62-5.13 0.08-0.91 0.15-1.82 0.23-2.75 0.05-0.7 0.1-1.4 0.15-2.12h3c-0.13-1.7-0.13-1.7-0.25-3.44-0.02-5.16 1.97-9.03 4.25-13.6 1.39-3.09 2.04-5.29 2.5-8.69 0.5-3.31 0.5-3.31 2.5-5.31 0.72-1.64 1.38-3.32 2-5 0.54-1.44 1.08-2.88 1.62-4.31 0.46-1.22 0.91-2.44 1.38-3.69 0.99 0.33 1.98 0.66 3 1-0.25-0.97-0.5-1.94-0.75-2.94-0.75-4.98 1.48-8.75 3.75-13.1l1-2h2c0.27-0.74 0.53-1.49 0.81-2.25 1.19-2.75 1.19-2.75 2.69-4.69 1.84-2.54 2.61-5.07 3.5-8.06h2c0.1-0.52 0.2-1.03 0.31-1.56 0.93-3.3 2.3-6.31 3.69-9.44h3c0.08-0.52 0.16-1.03 0.25-1.56 1.06-3.45 2.91-6.36 4.75-9.44 0.49-0.86 0.98-1.72 1.49-2.61 0.52-0.89 1.04-1.78 1.57-2.7 0.49-0.85 0.97-1.69 1.47-2.55 1.47-2.14 1.47-2.14 4.47-4.14 0.29-0.76 0.58-1.53 0.87-2.31 1.43-3.42 3.43-5.18 6.13-7.69 0.84-0.89 1.69-1.77 2.56-2.69 2.13-2.02 3.75-3.21 6.44-4.31-0.11-0.89-0.21-1.77-0.31-2.69 0.31-3.31 0.31-3.31 2.62-6.12 2.69-2.19 2.69-2.19 5.69-3.19 2.74-2.54 4.92-4.89 7-8h2c0.4-1.21 0.4-1.21 0.81-2.44 0.39-0.84 0.78-1.69 1.19-2.56 0.99-0.33 1.98-0.66 3-1 0.4-0.9 0.4-0.9 0.81-1.81 1.72-3.16 4.15-4.32 7.19-6.19 4.28-2.64 4.28-2.64 7.69-6.25 0.43-0.58 0.86-1.16 1.31-1.75h3v-3h2l1-4h3v-2c0.76-0.1 1.52-0.21 2.31-0.31 2.94-0.75 3.74-1.47 5.69-3.69 3-2 3-2 6-2v-2c0.6-0.08 1.19-0.17 1.81-0.25 2.35-0.57 2.35-0.57 3.63-2.75 1.56-2 1.56-2 4.25-2.75 0.76-0.08 1.52-0.17 2.31-0.25v-3c2.9-1.26 4.79-2 8-2v-3c0.95-0.27 1.9-0.54 2.87-0.81 3.38-0.94 3.38-0.94 5.13-4.19 1.77-0.88 1.77-0.88 3.81-1.56 0.71-0.25 1.42-0.5 2.15-0.75 0.67-0.23 1.34-0.46 2.04-0.69 3.78-1.12 3.78-1.12 6-4 1.89-0.66 3.81-1.22 5.75-1.75 6.09-1.79 11.7-4.13 17.4-6.88 2.6-1.24 5.21-2.31 7.88-3.37 1.42-0.69 2.83-1.37 4.25-2.06 4-1.82 7.52-2.47 11.9-2.67 2.09-0.12 2.09-0.12 3.85-2.27 2.69-0.27 5.29-0.09 8 0v-2c3.07-1.54 6.29-1.39 9.69-1.62 2.5-0.18 2.5-0.18 4.31-2.38 2.68-0.44 5.3-0.79 8-1.06 5.15-0.37 5.15-0.37 10-1.94 3.35-0.23 6.7-0.4 10.1-0.52 4.03-0.12 4.03-0.12 7.75-1.49 3.08-1.39 5.7-1.25 9.08-1.25zm-132 39.3v2h2v-2h-2zm-15 10 1 2zm-94 87 1 2zm-3 6 1 2zm-25 41 1 2z" fill="#FAFCFC"/>
<path transform="translate(330,995)" d="m0 0c3 1 3 1 3 1z" fill="#FBFDFD"/>
<path transform="translate(1195,1464)" d="m0 0 2 1z" fill="#000100"/>
<path transform="translate(319,1449)" d="m0 0 2 1z" fill="#000100"/>
<path transform="translate(1098,609)" d="m0 0 2 1z" fill="#7D7F7E"/>
</svg>
